<svg xmlns="http://www.w3.org/2000/svg" fill="none" viewBox="0 0 53 55">
  <path d="M2 17h14.5l2.5-3h4.5" stroke="#000"/>
  <g style="mix-blend-mode:screen" filter="url(#rxpz84zD9Aa)">
    <circle cx="26.5" cy="26.5" r="26.5" fill="#C4C4C4"/>
  </g>
  <circle cx="26" cy="26" r="4" fill="#000"/>
  <g filter="url(#rxpz84zD9Ab)">
    <path d="M36 26c0 5.523-4.477 10-10 10s-10-4.477-10-10 4.477-10 10-10 10 4.477 10 10z" fill="#898989" fill-opacity=".4"/>
  </g>
  <path d="M35.995 26c0 5.52-4.475 9.995-9.995 9.995S16.005 31.52 16.005 26 20.48 16.005 26 16.005 35.995 20.48 35.995 26z" stroke="#000" stroke-width=".01"/>
  <path stroke="#9D9D9D" stroke-width=".1" d="M11 42.95h31"/>
  <g filter="url(#rxpz84zD9Ac)">
    <path stroke="#9D9D9D" stroke-width=".1" d="M14 46.95h25"/>
  </g>
  <path d="M23 14h-3.882a1 1 0 00-.894.553l-.948 1.894a1 1 0 01-.894.553H2" stroke="#6F6F6F" stroke-width=".1"/>
  <path d="M20 14h12.934a1 1 0 01.857.486l.918 1.529a1 1 0 00.857.485H51" stroke="#6F6F6F" stroke-width=".1"/>
  <defs>
    <filter id="rxpz84zD9Aa" x="0" y="0" width="53" height="53" filterUnits="userSpaceOnUse" color-interpolation-filters="sRGB">
      <feFlood flood-opacity="0" result="BackgroundImageFix"/>
      <feBlend in="SourceGraphic" in2="BackgroundImageFix" result="shape"/>
      <feColorMatrix in="SourceAlpha" values="0 0 0 0 0 0 0 0 0 0 0 0 0 0 0 0 0 0 127 0" result="hardAlpha"/>
      <feMorphology radius="1" in="SourceAlpha" result="effect1_innerShadow_17_189"/>
      <feOffset/>
      <feGaussianBlur stdDeviation="10"/>
      <feComposite in2="hardAlpha" operator="arithmetic" k2="-1" k3="1"/>
      <feColorMatrix values="0 0 0 0 0.579167 0 0 0 0 0.574099 0 0 0 0 0.52849 0 0 0 0.33 0"/>
      <feBlend in2="shape" result="effect1_innerShadow_17_189"/>
    </filter>
    <filter id="rxpz84zD9Ab" x="16" y="16" width="20" height="20" filterUnits="userSpaceOnUse" color-interpolation-filters="sRGB">
      <feFlood flood-opacity="0" result="BackgroundImageFix"/>
      <feBlend in="SourceGraphic" in2="BackgroundImageFix" result="shape"/>
      <feColorMatrix in="SourceAlpha" values="0 0 0 0 0 0 0 0 0 0 0 0 0 0 0 0 0 0 127 0" result="hardAlpha"/>
      <feOffset/>
      <feGaussianBlur stdDeviation="12.5"/>
      <feComposite in2="hardAlpha" operator="arithmetic" k2="-1" k3="1"/>
      <feColorMatrix values="0 0 0 0 0 0 0 0 0 0 0 0 0 0 0 0 0 0 0.25 0"/>
      <feBlend in2="shape" result="effect1_innerShadow_17_189"/>
    </filter>
    <filter id="rxpz84zD9Ac" x="10" y="46.9" width="33" height="8.1" filterUnits="userSpaceOnUse" color-interpolation-filters="sRGB">
      <feFlood flood-opacity="0" result="BackgroundImageFix"/>
      <feColorMatrix in="SourceAlpha" values="0 0 0 0 0 0 0 0 0 0 0 0 0 0 0 0 0 0 127 0" result="hardAlpha"/>
      <feOffset dy="4"/>
      <feGaussianBlur stdDeviation="2"/>
      <feComposite in2="hardAlpha" operator="out"/>
      <feColorMatrix values="0 0 0 0 0 0 0 0 0 0 0 0 0 0 0 0 0 0 0.25 0"/>
      <feBlend in2="BackgroundImageFix" result="effect1_dropShadow_17_189"/>
      <feBlend in="SourceGraphic" in2="effect1_dropShadow_17_189" result="shape"/>
    </filter>
  </defs>
</svg>
