<svg xmlns="http://www.w3.org/2000/svg" fill="none" viewBox="0 0 411 206">
  <path fill="#565B63" d="M84 4h15v49H84z"/>
  <path d="M87.488 48.114c.447-.391 1.082-.395 1.602-.148.18-.317.257-.738.293-1.036.052-.438-.07-.68-.374-.84-.294.267-1.13.474-1.492.24-.166-.106.13-.457.266-.468.304-.025.628.018.918.106.118.036.22.075.308.122l.011-.01c.46-.441.651-1.65.426-2.248-.068-.18-.471-.283-.82-.313-.23.172-.491.307-.534.08-.014-.078.24-.105.534-.08.182-.137.344-.297.356-.316.25-.391 1.077-2.078.212-2.247a2.754 2.754 0 00-.62-.05c-.069.375-.31.72-.68.688-.207-.018-.18-.249-.077-.387.157-.212.456-.289.758-.301.064-.352-.02-.73-.29-.854-.073-.034-.29.045-.241-.02a3.82 3.82 0 00.079-.109 4.856 4.856 0 01-.161.003c-.301 0 .205-.554.237-.696.18-.815.35-1.751.298-2.62a.387.387 0 01-.018-.199c-.18.03-.159-.12-.043-.318v-.005c-.01-.054 0-.093.044-.065.06-.09.135-.188.219-.281l.038-.084.003-.005c.098-.207.42-.774.758-.912.109-.725-.01-1.46-.479-1.686-.348.366-1-.11-.279-.07.104.006.197.03.28.07a.624.624 0 00.14-.259c.064-.215.13-.622.054-.85-.034-.102-.265-.126-.445-.106a.295.295 0 01-.02.023c-.04.046-.188.043-.178.034a.428.428 0 01.198-.057c.082-.109.092-.263.1-.393l.002-.014c.008-.122.038-.33-.015-.45-.211-.474-.068-1.22-.068-1.759 0-1.313.348-2.571.348-3.876 0-1.183.153-2.367.174-3.548.01-.52.142-1.043.174-1.566.073-1.159.436 2.283.566 3.436.195 1.736.217 3.448.217 5.192 0 .804-.045 1.623.005 2.426.03.48.082-.88.082-.923 0-1.813-.106-3.646.136-5.443.154-1.147.125-2.356.125-3.514 0-.525-.088-.646-.241-1.107-.23-.686-.144-1.563-.189-2.281-.08-1.287.004-2.607-.005-3.896-.01-1.628-.435-3.203-.435-4.82V7.706c0-.402-.059-.794-.082-1.194-.018-.314-.162-.588-.179-.894-.025-.47.085-1.502-.222-1.866-.135-.16-.116-1.105.026-1.392h-.065a.964.964 0 00-.222.044c-.127.042-.952.088-.498-.02.008 0 .016-.003.024-.005.268-.06.56-.091.843-.102.086-.024.295-.004.22-.004a5.92 5.92 0 00-.22.004.12.12 0 00-.016.006c-.023.01-.045.036-.064.073.137-.006.277.004.412.004h-.414c-.142.287-.16 1.232-.026 1.392.306.364.197 1.395.222 1.866.017.306.161.58.18.894.022.4.081.792.081 1.194v1.6c0 1.616.425 3.191.435 4.82.009 1.288-.075 2.608.005 3.895.045.718-.04 1.595.189 2.282.153.46.241.58.241 1.106 0 1.158.029 2.367-.125 3.514-.242 1.797-.136 3.63-.136 5.443 0 .042-.052 1.403-.082.923-.05-.803-.005-1.622-.005-2.426 0-1.744-.022-3.456-.217-5.191-.13-1.154-.493-4.596-.566-3.437-.032.523-.164 1.046-.174 1.566-.021 1.181-.174 2.365-.174 3.548 0 1.305-.348 2.563-.348 3.876 0 .539-.143 1.285.068 1.76.053.12.023.327.015.45l-.001.013c-.009.13-.02.284-.1.393.179-.02.41.004.444.106.076.228.01.635-.053.85a.624.624 0 01-.142.259c.469.227.588.961.479 1.686a.33.33 0 01.271-.001c.152.07.062.723.054.836-.046.655-.286 1.273-.252 1.933.018.34.704.594.774 1.044.167 1.086-1.374 1.342-2.222 1.37a3.82 3.82 0 01-.08.11c-.048.064.17-.015.243.019.269.124.353.502.288.854.226-.01.452.017.62.05.865.169.038 1.856-.212 2.247a2.738 2.738 0 01-.356.316c.349.03.752.134.82.313.225.597.033 1.806-.426 2.247l-.01.01c.302.161.425.403.373.841-.036.298-.113.719-.293 1.036-.103.18-.24.328-.422.4-.243.095-1.291.28-1.494.053-.072-.081.271-.267.314-.305z" fill="#F1F1F1"/>
  <path d="M85.917 53.17c.897 0 1.832.075 2.726-.02.256-.026.498-.143.754-.154.44-.019.665.023.6-.536-.169-1.43-1.733-1.117-2.755-1.117-.213 0 .416-.214.483-.416.108-.322.016-.581-.285-.715-.405-.18-.284.17-.373.503-.11.417-.193.456-.193-.034 0-.548-.16-.845.484-.812.62.032 1.222.082 1.846.082.474 0 .858-.333.783-.85-.157-1.09-1.66-1.722-2.499-.987-.043.038-.386.224-.314.305.203.228 1.25.042 1.493-.053.501-.197.66-.967.716-1.436.068-.564-.156-.803-.682-.962a2.533 2.533 0 00-.918-.106c-.136.01-.432.362-.266.469.368.236 1.22.021 1.503-.252.46-.44.651-1.65.426-2.247-.124-.33-1.386-.404-1.354-.232.077.407.863-.355.89-.397.25-.391 1.077-2.078.212-2.247-.393-.077-1.103-.12-1.377.251-.103.138-.13.369.077.387.715.062.95-1.285.392-1.542-.074-.034-.29.045-.242-.02.402-.535.576-1.042.667-1.74.074-.563.257-1.702-.164-2.204-.102-.12-.125-.074-.112 0 .183 1.003-.018 2.16-.236 3.142-.032.142-.538.696-.237.696.794 0 2.56-.214 2.383-1.373-.07-.45-.756-.703-.774-1.044-.034-.66.206-1.278.252-1.933.008-.113.099-.766-.053-.836-.42-.194-.906.65-1.03.913-.06.128-.454.948-.155 1.035.46.132.825-.609.88-.948.223-1.371-1.741.922-.914.653 1.006-.327 1.506-3.335.189-3.408-.84-.047.185.609.42-.189.064-.215.13-.622.054-.85-.05-.152-.545-.13-.643-.049-.01.009.137.012.179-.034.103-.112.111-.287.12-.43.009-.122.04-.33-.014-.45-.211-.474-.068-1.22-.068-1.759 0-1.313.348-2.571.348-3.876 0-1.183.153-2.367.174-3.548.01-.52.142-1.043.174-1.566.073-1.159.436 2.283.566 3.436.195 1.736.217 3.448.217 5.192 0 .804-.045 1.623.005 2.426.03.48.082-.88.082-.923 0-1.813-.106-3.646.136-5.443.154-1.147.125-2.356.125-3.514 0-.525-.088-.646-.241-1.107-.23-.686-.144-1.563-.189-2.281-.08-1.287.004-2.607-.005-3.896-.01-1.628-.435-3.203-.435-4.82V7.706c0-.402-.059-.794-.082-1.194-.018-.314-.162-.588-.179-.894-.025-.47.085-1.502-.222-1.866-.153-.182-.109-1.38.092-1.47.072-.031.316-.009.237-.009-.347 0-.725.03-1.064.106-.506.114.344.068.474.025.221-.074.47-.044.7-.044h-.613c-.337 0-.972.122-1.17-.174M308.875 2c.098.915.499 1.53.937 2.326.863 1.568 1.179 3.097 1.233 4.878.231 7.624-1.517 15.253-2.413 22.774-.834 7-1.632 13.367-1.632 20.327" stroke="#F1F1F1" stroke-width="3" stroke-linecap="round"/>
  <path d="M86.875 2c.098.915.499 1.53.937 2.326.863 1.568 1.179 3.097 1.233 4.878.23 7.624-1.517 15.253-2.413 22.774-.834 7-1.632 13.367-1.632 20.327" stroke="#F1F1F1" stroke-width="3" stroke-linecap="round"/>
  <path fill="#F1F1F1" d="M90 2h217v51H90z"/>
  <path stroke="#F1F1F1" stroke-width="2" stroke-linecap="round" d="M87 1h221"/>
  <path fill="#060606" d="M156.971 182.012l.03-7 7 .03-.03 7z"/>
  <path stroke="#B79A35" d="M157.471 182.014l.029-7m5.971 7.026l.029-7m-2.029 6.991l.029-7m-2.029 6.992l.029-7"/>
  <path fill="#060606" d="M116.971 182.012l.03-7 7 .03-.03 7z"/>
  <path stroke="#B79A35" d="M117.471 182.014l.029-7m5.971 7.026l.029-7m-2.029 6.991l.029-7m-2.029 6.992l.029-7"/>
  <rect x="96" y="196" width="85" height="10" rx="2" fill="#898989"/>
  <rect x="96" y="174" width="85" height="10" rx="2" fill="#898989"/>
  <rect x="154" y="175" width="26" height="13" rx="1" transform="rotate(-89.76 154 175)" fill="#333"/>
  <path d="M34.833 104c-12.172 6.976-26.706 15.489-31.599 29.609-2.663 7.686-.778 16.855 3.377 23.694 4.126 6.789 11.008 10.777 18.456 12.942 5.135 1.493 10.394 2.816 15.698 3.542 2.59.354 4.93.724 7.229 2.044 4.259 2.445 6.77 6.281 10.058 9.803 1.898 2.032 3.802 4.094 6.316 5.366 4.706 2.383 9.839 2.928 15.042 3.213 5.298.291 11.31.969 16.356-.839 1.164-.418 1.993-1.261 3.14-1.643" stroke="#333" stroke-width="3" stroke-linecap="round"/>
  <rect x="358" y="75" width="11" height="23" rx="2" fill="#373131"/>
  <path fill="#D9D9D9" stroke="#B1B1B1" stroke-width="2" d="M49 54h295v11H49z"/>
  <rect x="34" y="63" width="325" height="63" rx="3" fill="#D9D9D9" stroke="#B1B1B1" stroke-width="2"/>
  <g filter="url(#Q0kmcBbVBa)">
    <path fill="#D9D9D9" d="M35 104h323v21H35z"/>
  </g>
  <g filter="url(#Q0kmcBbVBb)">
    <rect x="39" y="71" width="316" height="24" rx="4" fill="#565B63"/>
    <rect x="39.5" y="71.5" width="315" height="23" rx="3.5" stroke="#000" stroke-linejoin="round"/>
  </g>
  <circle cx="52" cy="83" r="2" fill="#D9D9D9"/>
  <circle cx="76" cy="83" r="2" fill="#D9D9D9"/>
  <circle cx="64" cy="83" r="2" fill="#D9D9D9"/>
  <path fill="#FAFAF6" d="M330 77h2v12h-2zm6 0h2v12h-2zm6 6h7v6h-7zm-3-1h2v7h-2zm0-5h10v5h-10zm-6 0h2v12h-2z"/>
  <g filter="url(#Q0kmcBbVBc)">
    <path stroke="#3F3F3F" d="M81.5 104v21"/>
  </g>
  <path stroke="#3F3F3F" d="M312.5 104v21"/>
  <rect x="370" y="185" width="26" height="13" rx="1" fill="#929292"/>
  <path fill="#060606" d="M363 188h7v7h-7z"/>
  <path stroke="#B79A35" d="M363 188.5h7m-7 6h7m-7-2h7m-7-2h7"/>
  <rect x="394.192" y="175.69" width="26" height="13" rx="1" transform="rotate(52.176 394.192 175.69)" fill="#333"/>
  <path fill="#060606" d="M387.529 172l4.293 5.53-5.53 4.292-4.292-5.53z"/>
  <path stroke="#B79A35" d="M387.134 172.307l4.293 5.529m-9.032-1.85l4.293 5.529m-2.713-6.755l4.292 5.529m-2.712-6.756l4.292 5.529"/>
  <rect x="114" y="175" width="26" height="13" rx="1" transform="rotate(-89.76 114 175)" fill="#333"/>
  <mask id="Q0kmcBbVBd" fill="#fff">
    <path d="M96 179h85v21H96v-21z"/>
  </mask>
  <path d="M96 179h85v21H96v-21z" fill="#DFE0E4"/>
  <path d="M180 179v21h2v-21h-2zm-83 21v-21h-2v21h2z" fill="silver" mask="url(#Q0kmcBbVBd)"/>
  <path fill="#fff" stroke="#CCC" d="M106.5 178.5h29v22h-29zm40 0h29v22h-29z"/>
  <path d="M99 183a4 4 0 014-4h3v21h-3a4 4 0 01-4-4v-13z" fill="#59A6D2"/>
  <path d="M306.171 32.438c0-.515.065-1.03.16-1.543.11.614.183 1.24.183 1.885 0 .364.2 1.478-.039 1.77-.096.118-.29-.53-.294-.571-.056-.504-.01-1.034-.01-1.541z" fill="#F1F1F1"/>
  <path d="M307.198 2.132c-.399.45.127 1.635.343 2.12.279.628.233 1.4.533 2.075.751 1.69.665 3.349.665 5.222v2.74c0 .973-.342 1.937-.342 2.93 0 2.158.357 4.721-.514 6.734-.535 1.237-.687 2.892-.941 4.214-.27 1.4-.771 2.837-.771 4.27 0 .508-.046 1.038.01 1.542.004.04.198.689.294.57.239-.29.039-1.405.039-1.769 0-2.62-1.199-4.89-1.199-7.495 0-1.091-.012-2.182 0-3.273.016-1.404.414-2.688.523-4.052.123-1.54.504-2.9.504-4.452 0-1.57.814-3.647.305-5.174-.38-1.14-.818-2.356-.818-3.634" stroke="#F1F1F1" stroke-width="3" stroke-linecap="round"/>
  <defs>
    <filter id="Q0kmcBbVBa" x="35" y="104" width="323" height="22" filterUnits="userSpaceOnUse" color-interpolation-filters="sRGB">
      <feFlood flood-opacity="0" result="BackgroundImageFix"/>
      <feBlend mode="normal" in="SourceGraphic" in2="BackgroundImageFix" result="shape"/>
      <feColorMatrix in="SourceAlpha" type="matrix" values="0 0 0 0 0 0 0 0 0 0 0 0 0 0 0 0 0 0 127 0" result="hardAlpha"/>
      <feOffset dy="1"/>
      <feGaussianBlur stdDeviation="1.5"/>
      <feComposite in2="hardAlpha" operator="arithmetic" k2="-1" k3="1"/>
      <feColorMatrix type="matrix" values="0 0 0 0 0 0 0 0 0 0 0 0 0 0 0 0 0 0 0.25 0"/>
      <feBlend mode="normal" in2="shape" result="effect1_innerShadow_106_51"/>
    </filter>
    <filter id="Q0kmcBbVBb" x="35" y="71" width="324" height="32" filterUnits="userSpaceOnUse" color-interpolation-filters="sRGB">
      <feFlood flood-opacity="0" result="BackgroundImageFix"/>
      <feColorMatrix in="SourceAlpha" type="matrix" values="0 0 0 0 0 0 0 0 0 0 0 0 0 0 0 0 0 0 127 0" result="hardAlpha"/>
      <feOffset dy="4"/>
      <feGaussianBlur stdDeviation="2"/>
      <feComposite in2="hardAlpha" operator="out"/>
      <feColorMatrix type="matrix" values="0 0 0 0 0 0 0 0 0 0 0 0 0 0 0 0 0 0 0.25 0"/>
      <feBlend mode="normal" in2="BackgroundImageFix" result="effect1_dropShadow_106_51"/>
      <feBlend mode="normal" in="SourceGraphic" in2="effect1_dropShadow_106_51" result="shape"/>
    </filter>
    <filter id="Q0kmcBbVBc" x="81" y="104" width="1" height="22" filterUnits="userSpaceOnUse" color-interpolation-filters="sRGB">
      <feFlood flood-opacity="0" result="BackgroundImageFix"/>
      <feBlend mode="normal" in="SourceGraphic" in2="BackgroundImageFix" result="shape"/>
      <feColorMatrix in="SourceAlpha" type="matrix" values="0 0 0 0 0 0 0 0 0 0 0 0 0 0 0 0 0 0 127 0" result="hardAlpha"/>
      <feOffset dy="4"/>
      <feGaussianBlur stdDeviation=".5"/>
      <feComposite in2="hardAlpha" operator="arithmetic" k2="-1" k3="1"/>
      <feColorMatrix type="matrix" values="0 0 0 0 0 0 0 0 0 0 0 0 0 0 0 0 0 0 0.25 0"/>
      <feBlend mode="normal" in2="shape" result="effect1_innerShadow_106_51"/>
    </filter>
  </defs>
</svg>
