<svg xmlns="http://www.w3.org/2000/svg" fill="none" viewBox="0 0 122 123">
  <mask id="gm_ZMvhI8-b" style="mask-type:alpha" maskUnits="userSpaceOnUse" x="0" y="0" width="122" height="123">
    <ellipse cx="60.878" cy="61.085" rx="60.878" ry="61.085" fill="#C4C4C4"/>
  </mask>
  <g filter="url(#gm_ZMvhI8-a)" mask="url(#gm_ZMvhI8-b)">
    <path d="M107.986 53.622c-13.25 8.469-27.686 9.514-32.245 2.333-4.56-7.18 2.486-19.867 15.735-28.337 13.249-8.47 27.686-9.514 32.245-2.333 4.559 7.18-2.486 19.867-15.735 28.337z" fill="#BDFFBC" fill-opacity=".5"/>
    <path d="M106.313 69.72c-14.566 5.905-28.95 4.292-32.129-3.602-3.178-7.894 6.052-19.08 20.618-24.985 14.566-5.905 28.95-4.292 32.129 3.602 3.178 7.894-6.052 19.08-20.618 24.985z" fill="#FFE0BB" fill-opacity=".5"/>
    <path d="M96.195 47.796c-12.308 8.974-26.667 10.198-32.07 2.736-5.404-7.462.194-20.786 12.503-29.76 12.309-8.972 26.667-10.197 32.071-2.735 5.403 7.463-.195 20.786-12.504 29.76z" fill="#FEFFBC" fill-opacity=".38"/>
    <path d="M3.998 70.502c13.249-8.47 27.685-9.514 32.244-2.334 4.56 7.181-2.485 19.868-15.734 28.337-13.25 8.47-27.686 9.514-32.245 2.334-4.56-7.181 2.485-19.868 15.735-28.337z" fill="#BDFFBC" fill-opacity=".5"/>
    <path d="M5.67 54.404c14.566-5.905 28.95-4.293 32.13 3.601 3.178 7.895-6.053 19.08-20.618 24.986-14.566 5.904-28.95 4.292-32.13-3.602-3.178-7.894 6.053-19.08 20.619-24.985z" fill="#FFE0BB" fill-opacity=".5"/>
    <path d="M15.788 76.327c12.309-8.973 26.668-10.198 32.071-2.736 5.403 7.463-.195 20.786-12.503 29.76-12.31 8.973-26.668 10.198-32.071 2.735-5.404-7.462.194-20.786 12.503-29.759z" fill="#FEFFBC" fill-opacity=".25"/>
    <path d="M18.195 46.596c15.02-2.538 28.416 2.772 29.922 11.862 1.506 9.089-9.449 18.515-24.468 21.053C8.629 82.05-4.767 76.74-6.273 67.65c-1.506-9.09 9.449-18.516 24.468-21.054zm74-12c15.019-2.538 28.416 2.772 29.922 11.862 1.506 9.089-9.449 18.515-24.468 21.053-15.02 2.538-28.416-2.772-29.922-11.861-1.506-9.09 9.449-18.516 24.468-21.054z" fill="#C973FE" fill-opacity=".15"/>
  </g>
  <defs>
    <filter id="gm_ZMvhI8-a" x="-46.574" y="-17.848" width="205.131" height="159.819" filterUnits="userSpaceOnUse" color-interpolation-filters="sRGB">
      <feFlood flood-opacity="0" result="BackgroundImageFix"/>
      <feBlend in="SourceGraphic" in2="BackgroundImageFix" result="shape"/>
      <feGaussianBlur stdDeviation="15.5" result="effect1_foregroundBlur_24_105"/>
    </filter>
  </defs>
</svg>
